<svg viewBox="0 0 113 113" xmlns="http://www.w3.org/2000/svg"><circle cx="51" cy="51" fill="#f0ec73" r="45"/><path d="m47 0a47 47 0 1 0 47 47 47 47 0 0 0 -47-47zm0 90a43 43 0 1 1 43-43 43 43 0 0 1 -43 43zm65.12 17.88-18-18a2.93 2.93 0 0 0 -2.28-.88l-7.43-7.43a2 2 0 0 0 -2.82 2.82l7.41 7.45a2.93 2.93 0 0 0 .86 2.28l18 18a3 3 0 0 0 4.24 0 3 3 0 0 0 .02-4.24zm-77.21-75.79a2 2 0 0 0 -2.82 0l-13.5 13.5a2 2 0 0 0 0 2.82l13.5 13.5a2 2 0 0 0 2.82-2.82l-12.08-12.09 12.08-12.09a2 2 0 0 0 0-2.82zm27 0a2 2 0 0 0 -2.82 2.82l12.08 12.09-12.08 12.09a2 2 0 1 0 2.82 2.82l13.5-13.5a2 2 0 0 0 0-2.82zm-7.27-.38a2 2 0 0 0 -2.68.9l-13.5 27a2 2 0 1 0 3.54 1.78l13.5-27a2 2 0 0 0 -.86-2.68z" fill="#24272a"/></svg>